<?xml version="1.0" standalone="no"?><svg xmlns="http://www.w3.org/2000/svg" viewBox="0 0 1440 320"><path fill="#ECE22C" fill-opacity="1" d="M0,224L20,192C40,160,80,96,120,85.3C160,75,200,117,240,165.3C280,213,320,267,360,266.7C400,267,440,213,480,202.7C520,192,560,224,600,218.7C640,213,680,171,720,154.7C760,139,800,149,840,181.3C880,213,920,267,960,282.7C1000,299,1040,277,1080,234.7C1120,192,1160,128,1200,106.7C1240,85,1280,107,1320,138.7C1360,171,1400,213,1420,234.7L1440,256L1440,320L1420,320C1400,320,1360,320,1320,320C1280,320,1240,320,1200,320C1160,320,1120,320,1080,320C1040,320,1000,320,960,320C920,320,880,320,840,320C800,320,760,320,720,320C680,320,640,320,600,320C560,320,520,320,480,320C440,320,400,320,360,320C320,320,280,320,240,320C200,320,160,320,120,320C80,320,40,320,20,320L0,320Z"></path></svg>